<?xml version="1.0" standalone="no"?>
<!DOCTYPE svg PUBLIC "-//W3C//DTD SVG 20010904//EN"
 "http://www.w3.org/TR/2001/REC-SVG-20010904/DTD/svg10.dtd">
<svg version="1.0" xmlns="http://www.w3.org/2000/svg"
 width="64.000000pt" height="64.000000pt" viewBox="0 0 64.000000 64.000000"
 preserveAspectRatio="xMidYMid meet">

<g transform="translate(0.000000,64.000000) scale(0.100000,-0.100000)"
fill="#000000" stroke="none">
<path d="M271 426 c-51 -74 -92 -139 -92 -143 0 -4 26 -9 56 -11 30 -2 55 -4
55 -6 0 -1 -11 -36 -25 -76 -26 -76 -32 -114 -16 -108 15 5 219 272 214 281
-2 4 -29 7 -59 7 -61 0 -60 -2 -39 85 16 68 19 105 7 105 -5 0 -50 -60 -101
-134z m60 -3 c-19 -68 -17 -73 39 -73 28 0 50 -3 50 -6 0 -6 -121 -164 -126
-164 -2 0 3 19 11 41 23 65 21 69 -35 69 -27 0 -50 3 -50 7 0 11 113 173 117
169 3 -2 0 -21 -6 -43z"/>
<path d="M16 508 c-13 -18 -16 -53 -16 -176 0 -150 1 -153 25 -178 22 -22 32
-25 93 -22 85 4 87 22 2 26 -35 2 -70 8 -77 14 -10 8 -13 51 -13 164 0 183 -7
174 139 174 61 0 101 4 101 10 0 6 -46 10 -119 10 -113 0 -121 -1 -135 -22z"/>
<path d="M430 520 c0 -5 22 -10 49 -10 56 0 81 -17 81 -56 0 -19 5 -24 25 -24
25 0 25 0 25 -95 0 -95 0 -95 -25 -95 -21 0 -25 -5 -25 -29 0 -41 -16 -50
-105 -53 -99 -4 -105 -22 -9 -26 87 -3 122 9 135 48 6 16 19 32 30 35 25 8 30
34 27 135 -3 76 -5 86 -25 95 -12 5 -24 19 -27 31 -11 41 -34 54 -97 54 -33 0
-59 -4 -59 -10z"/>
</g>
</svg>
